<svg xmlns="http://www.w3.org/2000/svg" version="1.1" xmlns:xlink="http://www.w3.org/1999/xlink" xmlns:svgjs="http://svgjs.dev/svgjs" width="1000" height="229" viewBox="0 0 1000 229"><g transform="matrix(1,0,0,1,-0.6060593971232606,-0.32659070952202285)"><svg viewBox="0 0 396 91" data-background-color="#ffffff" preserveAspectRatio="xMidYMid meet" height="229" width="1000" xmlns="http://www.w3.org/2000/svg" xmlns:xlink="http://www.w3.org/1999/xlink"><g id="tight-bounds" transform="matrix(1,0,0,1,0.23999952126081325,0.12978126901896303)"><svg viewBox="0 0 395.52 90.74043814335438" height="90.74043814335438" width="395.52"><g><svg viewBox="0 0 1077.4969352201724 247.19999999999996" height="90.74043814335438" width="395.52"><g><svg viewBox="0 0 1077.4969352201724 247.19999999999996" height="247.19999999999996" width="1077.4969352201724"><g><svg viewBox="0 0 1077.4969352201724 247.19999999999996" height="247.19999999999996" width="1077.4969352201724"><g><svg viewBox="0 0 1077.4969352201724 247.19999999999996" height="247.19999999999996" width="1077.4969352201724"><g><svg><g></g><g></g></svg></g><g><svg><g><svg></svg></g><g></g></svg></g><g id="text-0"><svg viewBox="0 0 1077.4969352201724 247.19999999999996" height="247.19999999999996" width="1077.4969352201724"><g transform="matrix(1,0,0,1,0,97.59214621256606)"><svg width="247.2" viewBox="3.549999952316284 -35.5 170.2899932861328 35.79999923706055" height="51.965707574867864" data-palette-color="#a437db"><path d="M26.3-3.03Q22.95 0.3 16.6 0.3 10.25 0.3 6.9-3.03 3.55-6.35 3.55-12.9L3.55-12.9 3.55-35 10.85-35 10.85-12.3Q10.85-9 12.33-7.23 13.8-5.45 16.55-5.45 19.3-5.45 20.83-7.23 22.35-9 22.35-12.3L22.35-12.3 22.35-35 29.65-35 29.65-12.9Q29.65-6.35 26.3-3.03ZM56.35-33.75L56.35-33.75 55.15-27.9 52.05-28.75Q48.75-29.5 46.3-29.5L46.3-29.5Q42.9-29.5 42.9-26.25L42.9-26.25Q42.9-25 44.07-23.98 45.25-22.95 47.05-22.28 48.85-21.6 50.9-20.6 52.95-19.6 54.75-18.45 56.55-17.3 57.72-15.3 58.9-13.3 58.9-10.7L58.9-10.7Q58.9-5.55 55.57-2.63 52.25 0.3 46.2 0.3L46.2 0.3Q43.1 0.3 40.02-0.53 36.95-1.35 34.95-2.45L34.95-2.45 37.1-7.8Q41.7-5.7 46.2-5.7L46.2-5.7Q48.75-5.7 50.2-6.88 51.65-8.05 51.65-9.9 51.65-11.75 50-12.98 48.35-14.2 46-15.18 43.65-16.15 41.3-17.38 38.95-18.6 37.3-20.83 35.65-23.05 35.65-26.1L35.65-26.1Q35.65-30.65 38.5-33.08 41.35-35.5 46.17-35.5 51-35.5 56.35-33.75ZM72.15-15.2L72.15-15.2 71.55-15.2 71.55-0.05 64.3-0.05 64.3-35.05 75.4-35.05Q81.05-35.05 83.84-32.58 86.65-30.1 86.65-25.5L86.65-25.5Q86.65-22.7 84.7-20.38 82.75-18.05 79.95-17.7L79.95-17.7Q81.95-17.15 83.05-15.88 84.15-14.6 85.34-11.75L85.34-11.75 90.3-0.05 82.84-0.05 78-11.25Q76.95-13.65 75.77-14.43 74.59-15.2 72.15-15.2ZM75.2-29.35L75.2-29.35 71.55-29.35 71.55-20.9 74.7-20.9Q76.7-20.9 77.82-22.2 78.95-23.5 78.95-25.4L78.95-25.4Q78.95-29.35 75.2-29.35ZM115.29-5.75L115.29 0 94.44 0 94.44-35 115.29-35 115.29-29.25 101.69-29.25 101.69-21.9 114.04-21.9 114.04-16.05 101.69-16.05 101.69-5.75 115.29-5.75ZM129.39-15.2L129.39-15.2 128.79-15.2 128.79-0.05 121.54-0.05 121.54-35.05 132.64-35.05Q138.29-35.05 141.09-32.58 143.89-30.1 143.89-25.5L143.89-25.5Q143.89-22.7 141.94-20.38 139.99-18.05 137.19-17.7L137.19-17.7Q139.19-17.15 140.29-15.88 141.39-14.6 142.59-11.75L142.59-11.75 147.54-0.05 140.09-0.05 135.24-11.25Q134.19-13.65 133.02-14.43 131.84-15.2 129.39-15.2ZM132.44-29.35L132.44-29.35 128.79-29.35 128.79-20.9 131.94-20.9Q133.94-20.9 135.06-22.2 136.19-23.5 136.19-25.4L136.19-25.4Q136.19-29.35 132.44-29.35ZM171.29-33.75L171.29-33.75 170.09-27.9 166.99-28.75Q163.69-29.5 161.24-29.5L161.24-29.5Q157.84-29.5 157.84-26.25L157.84-26.25Q157.84-25 159.01-23.98 160.19-22.95 161.99-22.28 163.79-21.6 165.84-20.6 167.89-19.6 169.69-18.45 171.49-17.3 172.66-15.3 173.84-13.3 173.84-10.7L173.84-10.7Q173.84-5.55 170.51-2.63 167.19 0.3 161.14 0.3L161.14 0.3Q158.04 0.3 154.96-0.53 151.89-1.35 149.89-2.45L149.89-2.45 152.04-7.8Q156.64-5.7 161.14-5.7L161.14-5.7Q163.69-5.7 165.14-6.88 166.59-8.05 166.59-9.9 166.59-11.75 164.94-12.98 163.29-14.2 160.94-15.18 158.59-16.15 156.24-17.38 153.89-18.6 152.24-20.83 150.59-23.05 150.59-26.1L150.59-26.1Q150.59-30.65 153.44-33.08 156.29-35.5 161.11-35.5 165.94-35.5 171.29-33.75Z" opacity="1" transform="matrix(1,0,0,1,0,0)" fill="#a437db" class="undefined-p-0"></path></svg></g><g><svg xmlns="http://www.w3.org/2000/svg" xmlns:xlink="http://www.w3.org/1999/xlink" version="1.1" x="260.87559999999996" y="0" viewBox="5.920000076293945 9.140000343322754 52.162498474121094 45.720001220703125" enable-background="new 0 0 64 64" xml:space="preserve" height="247.19999999999996" width="282.0334487866059" class="icon-c-0" data-fill-palette-color="accent" id="c-0"><g fill="#bb84e8" data-fill-palette-color="accent"><path d="M57.82 31L45.77 10.14c-0.35-0.62-1.01-1-1.729-1H19.96c-0.72 0-1.38 0.38-1.73 1L6.19 31c-0.36 0.62-0.36 1.38 0 2l12.04 20.86c0.35 0.62 1.01 1 1.73 1h24.08c0.72 0 1.38-0.38 1.729-1L57.82 33C58.17 32.38 58.17 31.62 57.82 31zM26 32c0-3.31 2.69-6 6-6 3.31 0 6 2.69 6 6 0 3.31-2.69 6-6 6C28.69 38 26 35.31 26 32zM46.11 18.72l0.26 0.45c-0.22 0.29-0.36 0.64-0.4 1.02C45.87 21.22 45.02 22 44 22c-0.34 0-0.65-0.09-0.93-0.24L46.11 18.72zM43.54 14.28l0.5 0.85-3.35 3.36c-0.32-0.13-0.62-0.27-0.921-0.43L43.54 14.28zM39.03 13.14l-2.32 2.32c-0.53-0.71-0.95-1.49-1.26-2.32H39.03z" fill="#000000" data-fill-palette-color="accent"></path></g></svg></g><g transform="matrix(1,0,0,1,556.5846487866058,47.21519999999998)"><svg width="520.9122864335665" viewBox="1.5 -35.45000076293945 121.88999938964844 35.75" height="152.7696" data-palette-color="#a437db"><path d="M17.3 0.3L17.3 0.3Q9.65 0.3 5.58-4.53 1.5-9.35 1.5-17.6 1.5-25.85 5.83-30.65 10.15-35.45 17.85-35.45L17.85-35.45Q22.05-35.45 26.2-34L26.2-34 24.8-28.4Q21.75-29.7 17.6-29.7 13.45-29.7 11.1-26.55 8.75-23.4 8.75-17.85 8.75-12.3 10.95-8.88 13.15-5.45 17.15-5.45L17.15-5.45Q20.15-5.45 25.7-7.4L25.7-7.4 27.2-2.3Q22.65 0.3 17.3 0.3ZM40.6-15.2L40.6-15.2 40-15.2 40-0.05 32.75-0.05 32.75-35.05 43.85-35.05Q49.5-35.05 52.3-32.58 55.1-30.1 55.1-25.5L55.1-25.5Q55.1-22.7 53.15-20.38 51.2-18.05 48.4-17.7L48.4-17.7Q50.4-17.15 51.5-15.88 52.6-14.6 53.8-11.75L53.8-11.75 58.75-0.05 51.3-0.05 46.45-11.25Q45.4-13.65 44.22-14.43 43.05-15.2 40.6-15.2ZM43.65-29.35L43.65-29.35 40-29.35 40-20.9 43.15-20.9Q45.15-20.9 46.27-22.2 47.4-23.5 47.4-25.4L47.4-25.4Q47.4-29.35 43.65-29.35ZM85.65-3.03Q82.3 0.3 75.95 0.3 69.59 0.3 66.25-3.03 62.9-6.35 62.9-12.9L62.9-12.9 62.9-35 70.2-35 70.2-12.3Q70.2-9 71.67-7.23 73.15-5.45 75.9-5.45 78.65-5.45 80.17-7.23 81.7-9 81.7-12.3L81.7-12.3 81.7-35 89-35 89-12.9Q89-6.35 85.65-3.03ZM123.39-18.75L123.39-18.75Q123.39-10.3 118.49-5.15 113.59 0 105.39 0L105.39 0 96.09 0 96.09-35 106.94-35Q114.39-35 118.89-30.45 123.39-25.9 123.39-18.75ZM115.84-19.15L115.84-19.15Q115.84-23.85 113.29-26.55 110.74-29.25 107.14-29.25L107.14-29.25 103.14-29.25 103.14-5.75 105.84-5.75Q110.04-5.75 112.94-9.33 115.84-12.9 115.84-19.15Z" opacity="1" transform="matrix(1,0,0,1,0,0)" fill="#a437db" class="undefined-p-1"></path></svg></g></svg></g></svg></g></svg></g></svg></g></svg></g><defs></defs></svg><rect width="395.52" height="90.74043814335438" fill="none" stroke="none" visibility="hidden"></rect></g></svg></g></svg>